<?xml version="1.0" encoding="utf-8"?>
<!-- Generator: Adobe Illustrator 23.0.0, SVG Export Plug-In . SVG Version: 6.00 Build 0)  -->
<svg version="1.1" id="Livello_1" xmlns="http://www.w3.org/2000/svg" xmlns:xlink="http://www.w3.org/1999/xlink" x="0px" y="0px"
	 viewBox="0 0 689 255.1" style="enable-background:new 0 0 689 255.1;" xml:space="preserve">
<style type="text/css">
	.st0{fill:#8E5659;}
	.st1{fill:#737070;}
	.st2{clip-path:url(#SVGID_2_);fill:#8E5659;}
	.st3{fill:none;stroke:#FFFFFF;stroke-width:0.8099;stroke-miterlimit:10;}
	.st4{fill:none;stroke:#FFFFFF;stroke-width:0.8041;stroke-miterlimit:10;}
</style>
<path class="st0" d="M176.1,114.8v23.8c0,28.7-14.4,45.1-42,45.1c-27.7,0-42-16.4-42-45.1V45.3c0-28.7,14.4-45.1,42-45.1
	c27.7,0,42,16.4,42,45.1v17.4h-26.7V43.5c0-12.8-5.6-17.7-14.6-17.7c-9,0-14.6,4.9-14.6,17.7v96.9c0,12.8,5.6,17.4,14.6,17.4
	c9,0,14.6-4.6,14.6-17.4v-25.6L176.1,114.8L176.1,114.8z"/>
<path class="st0" d="M191.2,44.9C191.2,16.3,206.3,0,234,0c27.7,0,42.8,16.3,42.8,44.9v92.9c0,28.6-15.1,44.9-42.8,44.9
	c-27.7,0-42.8-16.3-42.8-44.9V44.9z M219.4,139.6c0,12.8,5.6,17.6,14.6,17.6c9,0,14.6-4.9,14.6-17.6V43.1c0-12.8-5.6-17.6-14.6-17.6
	c-9,0-14.6,4.8-14.6,17.6V139.6z"/>
<path class="st1" d="M294.8,0.5h44.6c28.2,0,42,15.8,42,44.8v91.6c0,29-13.8,44.8-42,44.8h-44.6V0.5z M322.9,26.4v129.4h15.9
	c9,0,14.4-4.7,14.4-17.6V44c0-12.9-5.4-17.6-14.4-17.6H322.9z"/>
<path class="st1" d="M399.3,0.3h28.2v182.3h-28.2V0.3z"/>
<path class="st1" d="M490.3,81.7h39.5v56.9c0,28.7-14.4,45.1-42,45.1c-27.7,0-42-16.4-42-45.1V45.3c0-28.7,14.4-45.1,42-45.1
	c27.7,0,42,16.4,42,45.1v17.4h-26.7V43.5c0-12.8-5.6-17.7-14.6-17.7c-9,0-14.6,4.9-14.6,17.7v96.9c0,12.8,5.6,17.4,14.6,17.4
	c9,0,14.6-4.6,14.6-17.4v-33.1h-12.8L490.3,81.7L490.3,81.7z"/>
<path class="st1" d="M548,0.6h28.2v181H548V0.6z"/>
<g>
	<g>
		<g>
			<g>
				<defs>
					<rect id="SVGID_1_" x="591.5" y="0.1" width="96.4" height="79.6"/>
				</defs>
				<clipPath id="SVGID_2_">
					<use xlink:href="#SVGID_1_"  style="overflow:visible;"/>
				</clipPath>
				<path class="st2" d="M603.5,17.4c-6.9,0.5-12.6,6.5-12,13.4c0.6,6,6,10.9,12.3,10.2c5.3-0.6,9.7-5.2,9-10.6
					c-0.6-4.4-4.7-8-9.4-7.3c-3.7,0.6-6.7,4-5.9,7.8c0.3,1.4,1.1,2.6,2.3,3.4c1.2,0.8,2.8,1.2,4.4,0.7c1-0.3,1.9-1,2.4-1.9
					c0.6-0.9,0.8-2.4,0-3.6c-0.6-0.9-1.2-1.1-2-1.3c-0.4-0.1-1.1-0.1-1.7,0.3c-0.7,0.4-1,1.3-1,1.9c0,0.5,0.2,0.9,0.5,1.2
					c-0.2,0-0.3-0.1-0.5-0.2c-0.4-0.3-0.8-0.8-0.9-1.4c-0.4-1.7,1.1-3.4,3-3.7c2.6-0.4,5,1.7,5.4,4.3c0.4,3.4-2.4,6.4-5.8,6.7
					c-4.3,0.4-8-3-8.4-7.1c-0.5-4.9,3.7-9.3,8.7-9.7c0,0,0.1,0,0.1,0H675c0,0,0.1,0,0.1,0c5,0.4,9.2,4.7,8.7,9.7
					c-0.4,4.1-4.2,7.5-8.4,7.1c-3.4-0.4-6.3-3.4-5.8-6.7c0.3-2.6,2.8-4.7,5.4-4.3c1.8,0.3,3.4,2,3,3.7c-0.1,0.5-0.5,1.1-0.9,1.4
					c-0.2,0.1-0.4,0.2-0.5,0.2c0.3-0.3,0.5-0.8,0.5-1.2c0-0.6-0.3-1.5-1-1.9c-0.7-0.4-1.3-0.4-1.7-0.3c-0.9,0.1-1.4,0.3-2.1,1.3
					c-0.8,1.2-0.6,2.6,0,3.6c0.6,0.9,1.4,1.6,2.4,1.9c1.6,0.5,3.2,0.1,4.4-0.7c1.2-0.8,2-2,2.3-3.4c0.8-3.9-2.2-7.3-5.9-7.8
					c-4.8-0.7-8.9,2.9-9.4,7.3c-0.7,5.4,3.7,10.1,9,10.6c6.3,0.7,11.8-4.2,12.3-10.2c0.6-7-5.1-12.9-12-13.4c-0.1,0-0.3,0-0.4,0
					h-71.1C603.8,17.3,603.6,17.4,603.5,17.4L603.5,17.4L603.5,17.4z"/>
			</g>
		</g>
	</g>
	<polygon class="st1" points="590.3,0.3 689,0.3 680,15.4 598.6,15.4 	"/>
	<rect x="625.3" y="23.7" class="st1" width="28.6" height="158.4"/>
</g>
<g>
	<path class="st0" d="M28.2,77.2h38.7v26H28.2v53.3h48.7v26H0V0.5h76.9v26H28.2C28.2,26.5,28.2,77.2,28.2,77.2z"/>
	<g>
		<line class="st3" x1="0.2" y1="16.7" x2="28.1" y2="48.5"/>
		<polyline class="st3" points="76.6,26.3 39.9,1.1 0.5,56.1 		"/>
		<polyline class="st3" points="0.5,55.7 28.2,102.4 0.7,181.7 76.7,156.8 		"/>
		<polyline class="st3" points="76.9,181.7 27.7,157.2 0.6,108.8 28.2,102.4 66.7,77.5 		"/>
	</g>
</g>
<polyline class="st4" points="175.6,59.3 121.5,2.4 92.6,102.1 115.4,146.6 137.3,182.8 175.7,114.9 "/>
<polyline class="st4" points="157.4,6.1 92.4,49.1 119.7,90.1 99,165.5 174.3,153.9 "/>
<polygon class="st4" points="222.6,2 275.6,49.2 248.8,140.2 273.9,154.1 230,182.3 192.2,116.4 "/>
<polygon class="st4" points="250.1,3.1 191.5,61.8 218.2,111 198.1,164.4 235.3,157.4 250.3,168.9 275.8,112.5 248.8,64.5 272,21.9 
	"/>
<g>
	<path class="st0" d="M3,202.9h11.1v1.3H3v7.6h12v1.4H1.5V194h13.1v1.4H3V202.9z"/>
	<path class="st0" d="M28.9,211.3c-1.4,1.4-3.1,2-4.9,2c-3.8,0-6.9-2.6-6.9-6.9s3-6.9,6.9-6.9c1.8,0,3.5,0.7,4.9,2l-0.9,0.9
		c-1.1-1.1-2.6-1.6-4-1.6c-3,0-5.6,2-5.6,5.7c0,3.7,2.5,5.7,5.6,5.7c1.4,0,2.9-0.6,4-1.7L28.9,211.3z"/>
	<path class="st0" d="M31.2,206.5c0-4.3,3-7.1,6.8-7.1c3.8,0,6.8,2.7,6.8,7.1s-3,7-6.8,7C34.3,213.4,31.2,210.8,31.2,206.5z
		 M43.5,206.5c0-3.5-2.5-5.8-5.5-5.8c-3,0-5.5,2.3-5.5,5.8s2.5,5.6,5.5,5.6C41,212.1,43.5,210,43.5,206.5z"/>
	<path class="st1" d="M57,202.1c-1.4-1.2-2.7-1.4-4.2-1.4c-2.1,0-4.1,0.8-4,2.5c0.1,1.8,2.4,2.2,4.1,2.5c2.4,0.4,5.7,0.8,5.5,4
		c-0.1,3-3.1,3.8-5.5,3.8c-2.4,0-4.7-0.9-5.8-2.7l1-0.9c1.1,1.6,3.1,2.3,4.9,2.3c1.6,0,4.1-0.4,4.2-2.6c0.1-2-2.2-2.3-4.4-2.7
		c-2.6-0.4-5.2-0.9-5.2-3.7c0-2.7,2.6-3.8,5.3-3.8c1.9,0,3.7,0.5,5,1.8L57,202.1z"/>
	<path class="st1" d="M63.1,195.2c0,1.4-2.1,1.4-2.1,0S63.1,193.8,63.1,195.2z M61.4,199.6v13.6h1.3v-13.6H61.4z"/>
	<path class="st1" d="M75.7,202.1c-1.4-1.2-2.7-1.4-4.2-1.4c-2.1,0-4.1,0.8-4,2.5c0.1,1.8,2.4,2.2,4.1,2.5c2.4,0.4,5.7,0.8,5.5,4
		c-0.1,3-3.1,3.8-5.5,3.8c-2.4,0-4.7-0.9-5.8-2.7l1-0.9c1.1,1.6,3.1,2.3,4.9,2.3c1.6,0,4.1-0.4,4.2-2.6c0.1-2-2.2-2.3-4.4-2.7
		c-2.6-0.4-5.2-0.9-5.2-3.7c0-2.7,2.6-3.8,5.3-3.8c1.9,0,3.7,0.5,5,1.8L75.7,202.1z"/>
	<path class="st1" d="M83.1,195.6v4.1h4.5v1.1h-4.5v8.3c0,1.8,0.4,3.1,2.5,3.1c0.7,0,1.4-0.2,2.1-0.5l0.5,1.1
		c-0.8,0.4-1.7,0.7-2.5,0.7c-2.8,0-3.8-1.7-3.8-4.4v-8.3h-2.8v-1.1h2.8v-4L83.1,195.6z"/>
	<path class="st1" d="M89.9,206.4c0-4.1,3-7,6.8-7c3.8,0,7.1,2.3,6.6,7.6h-12c0.3,3.2,2.7,5,5.4,5c1.8,0,3.8-0.7,4.8-2.1l0.9,0.8
		c-1.3,1.7-3.6,2.6-5.8,2.6C92.9,213.4,89.9,210.8,89.9,206.4z M102.1,205.9c0-3.4-2.2-5.2-5.4-5.2c-2.8,0-5.1,1.9-5.4,5.2H102.1z"
		/>
	<path class="st1" d="M126.3,213.2v-8.1c0-2.6-1.7-4.5-4.3-4.5c-2.5,0-4.3,1.9-4.3,4.5v8.1h-1.3v-8.1c0-2.6-1.8-4.5-4.3-4.5
		c-2.5,0-4.3,1.9-4.3,4.5v8.1h-1.3v-13.6h1.2l0,2.3c0.9-1.8,2.6-2.5,4.4-2.5c2,0,4.2,0.9,5,3.4c0.8-2.2,2.9-3.4,5-3.4
		c3.3,0,5.6,2.3,5.6,5.7v8.1L126.3,213.2L126.3,213.2z"/>
	<path class="st1" d="M144.2,199.7c0,4.5,0,9,0,13.6h-1.3v-2.9c-1.3,2.1-3.3,3.1-5.5,3.1c-3.7,0-6.8-2.9-6.8-7s3.1-7,6.8-7
		c2.2,0,4.4,1,5.5,3.1v-3L144.2,199.7L144.2,199.7z M131.9,206.4c0,3.4,2.4,5.7,5.5,5.7c7.4,0,7.4-11.4,0-11.4
		C134.4,200.8,131.9,203,131.9,206.4z"/>
	<path class="st0" d="M171.4,203.4c0.1,4.9-3,9.8-9.6,9.8c-2.1,0-4.3,0-6.4,0V194c2.1,0,4.3,0,6.4,0
		C168.2,194,171.3,198.7,171.4,203.4z M156.8,195.4v16.4h5c5.6,0,8.2-4.3,8.1-8.4c-0.1-4-2.7-8-8.1-8H156.8z"/>
	<path class="st0" d="M176.2,195.2c0,1.4-2.1,1.4-2.1,0S176.2,193.8,176.2,195.2z M174.4,199.6v13.6h1.3v-13.6H174.4z"/>
	<path class="st0" d="M190.3,199.1l0.9,0.8l-1.3,1.5c0.9,1,1.7,2.4,1.7,4.6c0,2.4-1.4,4.8-3.6,5.8c2.4,0.9,3.7,2.5,3.7,4.9
		c0,3.7-2.8,5.4-6.4,5.4c-3.5,0-6.3-2-6.3-5.4h1.3c0,2.8,2.3,4.1,5,4.1c2.7,0,5.1-1.2,5.1-4.1c0-2.9-2.6-4.1-5.1-4.1
		c-3.9,0-6.3-2.9-6.3-6.6c0-4.2,2.8-6.6,6.3-6.6c1.4,0,2.8,0.5,3.8,1.2L190.3,199.1z M180.3,206c0,2.8,1.9,5.2,5,5.2
		c2.8,0,5-2.4,5-5.2c0-3.4-2.2-5.3-5-5.3C182.5,200.8,180.3,202.5,180.3,206z"/>
	<path class="st0" d="M196,195.2c0,1.4-2.1,1.4-2.1,0S196,193.8,196,195.2z M194.3,199.6v13.6h1.3v-13.6H194.3z"/>
	<path class="st0" d="M202.4,195.6v4.1h4.5v1.1h-4.5v8.3c0,1.8,0.4,3.1,2.5,3.1c0.7,0,1.4-0.2,2.1-0.5l0.5,1.1
		c-0.8,0.4-1.7,0.7-2.5,0.7c-2.8,0-3.8-1.7-3.8-4.4v-8.3h-2.8v-1.1h2.8v-4L202.4,195.6z"/>
	<path class="st1" d="M222.9,199.7c0,4.5,0,9,0,13.6h-1.3v-2.9c-1.3,2.1-3.3,3.1-5.5,3.1c-3.7,0-6.8-2.9-6.8-7s3.1-7,6.8-7
		c2.2,0,4.4,1,5.5,3.1v-3L222.9,199.7L222.9,199.7z M210.6,206.4c0,3.4,2.4,5.7,5.5,5.7c7.4,0,7.4-11.4,0-11.4
		C213.1,200.8,210.6,203,210.6,206.4z"/>
	<path class="st1" d="M227.8,194v19.2h-1.3V194H227.8z"/>
	<path class="st1" d="M230.8,206.4c0-4.1,3-7,6.8-7c3.8,0,7.1,2.3,6.6,7.6h-12c0.3,3.2,2.7,5,5.4,5c1.8,0,3.8-0.7,4.8-2.1l0.9,0.8
		c-1.3,1.7-3.6,2.6-5.8,2.6C233.8,213.4,230.8,210.8,230.8,206.4z M243,205.9c0-3.4-2.2-5.2-5.4-5.2c-2.8,0-5.1,1.9-5.4,5.2H243z"/>
	<path class="st1" d="M255,218.9v-19.2h1.3v3.2c1.1-2.1,3.2-3.4,5.8-3.4c3.6,0.1,6.5,2.6,6.5,7c0,4.6-3,7-6.8,7
		c-2.3,0-4.4-1.1-5.5-3.4v8.8H255z M267.3,206.4c0-3.8-2.4-5.7-5.5-5.7c-3.1,0-5.4,2.4-5.4,5.7s2.4,5.7,5.4,5.7
		C264.9,212.2,267.3,210.3,267.3,206.4z"/>
	<path class="st1" d="M271.1,206.4c0-4.1,3-7,6.8-7c3.8,0,7.1,2.3,6.6,7.6h-12c0.3,3.2,2.7,5,5.4,5c1.8,0,3.8-0.7,4.8-2.1l0.9,0.8
		c-1.3,1.7-3.6,2.6-5.8,2.6C274.2,213.4,271.1,210.8,271.1,206.4z M283.3,205.9c0-3.4-2.2-5.2-5.4-5.2c-2.8,0-5.1,1.9-5.4,5.2H283.3
		z"/>
	<path class="st1" d="M289.2,199.7l0.1,2.4c0.8-1.8,2.7-2.6,4.4-2.6c1,0,2,0.2,2.9,0.8l-0.6,1.1c-0.7-0.4-1.5-0.6-2.3-0.6
		c-2.5,0-4.4,2.1-4.4,4.5v7.9H288v-13.6H289.2z"/>
	<path class="st1" d="M307.3,194v19.2H306V194H307.3z"/>
	<path class="st1" d="M323.9,199.7c0,4.5,0,9,0,13.6h-1.3v-2.9c-1.3,2.1-3.3,3.1-5.5,3.1c-3.7,0-6.8-2.9-6.8-7s3.1-7,6.8-7
		c2.2,0,4.4,1,5.5,3.1v-3L323.9,199.7L323.9,199.7z M311.6,206.4c0,3.4,2.4,5.7,5.5,5.7c7.4,0,7.4-11.4,0-11.4
		C314.1,200.8,311.6,203,311.6,206.4z"/>
	<path class="st1" d="M336.7,203.1h10.9v1.4h-10.9v8.7h-1.5V194h12.8v1.5h-11.3V203.1z"/>
	<path class="st1" d="M352.2,199.7l0.1,2.4c0.8-1.8,2.7-2.6,4.4-2.6c1,0,2,0.2,2.9,0.8l-0.6,1.1c-0.7-0.4-1.5-0.6-2.3-0.6
		c-2.5,0-4.4,2.1-4.4,4.5v7.9h-1.3v-13.6H352.2z"/>
	<path class="st1" d="M372.6,213.2v-2.4c-1,1.9-2.9,2.6-4.8,2.7c-3.6,0-6-2.2-6-6v-7.8h1.3v7.8c0,3.1,1.9,4.7,4.8,4.7
		c2.8,0,4.7-2.1,4.7-4.9v-7.6h1.3v13.6L372.6,213.2L372.6,213.2z"/>
	<path class="st1" d="M379.1,195.2c0,1.4-2.1,1.4-2.1,0S379.1,193.8,379.1,195.2z M377.4,199.6v13.6h1.3v-13.6H377.4z"/>
	<path class="st1" d="M382.1,199.7h10.1v0.5l-8.4,11.8h8.4v1.3h-10.5v-0.5l8.5-11.9h-8.1V199.7z"/>
	<path class="st1" d="M396.7,195.2c0,1.4-2.1,1.4-2.1,0S396.7,193.8,396.7,195.2z M394.9,199.6v13.6h1.3v-13.6H394.9z"/>
	<path class="st1" d="M399.7,206.5c0-4.3,3-7.1,6.8-7.1c3.8,0,6.8,2.7,6.8,7.1s-3,7-6.8,7C402.7,213.4,399.7,210.8,399.7,206.5z
		 M412,206.5c0-3.5-2.5-5.8-5.5-5.8s-5.5,2.3-5.5,5.8s2.5,5.6,5.5,5.6S412,210,412,206.5z"/>
	<path class="st1" d="M417.6,199.7v2.4c1-1.9,2.9-2.6,4.8-2.7c3.6,0,6,2.2,6,6v7.8h-1.3v-7.8c0-3.1-1.9-4.7-4.8-4.7
		c-2.8,0-4.7,2.1-4.7,4.9v7.6h-1.3v-13.6L417.6,199.7L417.6,199.7z"/>
	<path class="st1" d="M431.1,206.4c0-4.1,3-7,6.8-7c3.8,0,7.1,2.3,6.6,7.6h-12c0.3,3.2,2.7,5,5.4,5c1.8,0,3.8-0.7,4.8-2.1l0.9,0.8
		c-1.3,1.7-3.6,2.6-5.8,2.6C434.2,213.4,431.1,210.8,431.1,206.4z M443.4,205.9c0-3.4-2.2-5.2-5.4-5.2c-2.8,0-5.1,1.9-5.4,5.2H443.4
		z"/>
	<path class="st1" d="M454.7,206.4c0-4.1,3-7,6.8-7c3.8,0,7.1,2.3,6.6,7.6h-12c0.3,3.2,2.7,5,5.4,5c1.8,0,3.8-0.7,4.8-2.1l0.9,0.8
		c-1.3,1.7-3.6,2.6-5.8,2.6C457.7,213.4,454.7,210.8,454.7,206.4z M466.9,205.9c0-3.4-2.2-5.2-5.4-5.2c-2.8,0-5.1,1.9-5.4,5.2H466.9
		z"/>
	<path class="st1" d="M480.3,194v19.2H479V194H480.3z"/>
	<path class="st1" d="M496.8,199.7c0,4.5,0,9,0,13.6h-1.3v-2.9c-1.3,2.1-3.3,3.1-5.5,3.1c-3.7,0-6.8-2.9-6.8-7s3.1-7,6.8-7
		c2.2,0,4.4,1,5.5,3.1v-3L496.8,199.7L496.8,199.7z M484.6,206.4c0,3.4,2.4,5.7,5.5,5.7c7.4,0,7.4-11.4,0-11.4
		C487,200.8,484.6,203,484.6,206.4z"/>
	<path class="st1" d="M523.9,194l-7.8,19.3h-1.6l-7.8-19.3h1.6l7,17.6l7-17.6H523.9z"/>
	<path class="st1" d="M536.7,199.7c0,4.5,0,9,0,13.6h-1.3v-2.9c-1.3,2.1-3.3,3.1-5.5,3.1c-3.7,0-6.8-2.9-6.8-7s3.1-7,6.8-7
		c2.2,0,4.4,1,5.5,3.1v-3L536.7,199.7L536.7,199.7z M524.5,206.4c0,3.4,2.4,5.7,5.5,5.7c7.4,0,7.4-11.4,0-11.4
		C526.9,200.8,524.5,203,524.5,206.4z"/>
	<path class="st1" d="M541.6,194v19.2h-1.3V194H541.6z"/>
	<path class="st1" d="M544.7,206.5c0-4.3,3-7.1,6.8-7.1c3.8,0,6.8,2.7,6.8,7.1s-3,7-6.8,7C547.8,213.4,544.7,210.8,544.7,206.5z
		 M557,206.5c0-3.5-2.5-5.8-5.5-5.8c-3,0-5.5,2.3-5.5,5.8s2.5,5.6,5.5,5.6C554.6,212.1,557,210,557,206.5z"/>
	<path class="st1" d="M562.6,199.7l0.1,2.4c0.8-1.8,2.7-2.6,4.4-2.6c1,0,2,0.2,2.9,0.8l-0.6,1.1c-0.7-0.4-1.5-0.6-2.3-0.6
		c-2.5,0-4.4,2.1-4.4,4.5v7.9h-1.3v-13.6H562.6z"/>
	<path class="st1" d="M573.7,195.2c0,1.4-2.1,1.4-2.1,0S573.7,193.8,573.7,195.2z M572,199.6v13.6h1.3v-13.6H572z"/>
	<path class="st1" d="M576.7,199.7h10.1v0.5l-8.4,11.8h8.4v1.3h-10.5v-0.5l8.5-11.9h-8.1V199.7z"/>
	<path class="st1" d="M589.1,199.7h10.1v0.5l-8.4,11.8h8.4v1.3h-10.5v-0.5l8.5-11.9h-8.1L589.1,199.7L589.1,199.7z"/>
	<path class="st1" d="M614.8,199.7c0,4.5,0,9,0,13.6h-1.3v-2.9c-1.3,2.1-3.3,3.1-5.5,3.1c-3.7,0-6.8-2.9-6.8-7s3.1-7,6.8-7
		c2.2,0,4.4,1,5.5,3.1v-3L614.8,199.7L614.8,199.7z M602.5,206.4c0,3.4,2.4,5.7,5.5,5.7c7.4,0,7.4-11.4,0-11.4
		C605,200.8,602.5,203,602.5,206.4z"/>
	<path class="st1" d="M617.7,199.7h10.1v0.5l-8.4,11.8h8.4v1.3h-10.5v-0.5l8.5-11.9h-8.1V199.7z"/>
	<path class="st1" d="M632.3,195.2c0,1.4-2.1,1.4-2.1,0S632.3,193.8,632.3,195.2z M630.6,199.6v13.6h1.3v-13.6H630.6z"/>
	<path class="st1" d="M635.3,206.5c0-4.3,3-7.1,6.8-7.1c3.8,0,6.8,2.7,6.8,7.1s-3,7-6.8,7C638.4,213.4,635.3,210.8,635.3,206.5z
		 M647.6,206.5c0-3.5-2.5-5.8-5.5-5.8c-3,0-5.5,2.3-5.5,5.8s2.5,5.6,5.5,5.6C645.2,212.1,647.6,210,647.6,206.5z"/>
	<path class="st1" d="M653.3,199.7v2.4c1-1.9,2.9-2.6,4.8-2.7c3.6,0,6,2.2,6,6v7.8h-1.3v-7.8c0-3.1-1.9-4.7-4.8-4.7
		c-2.8,0-4.7,2.1-4.7,4.9v7.6H652v-13.6L653.3,199.7L653.3,199.7z"/>
	<path class="st1" d="M666.8,206.4c0-4.1,3-7,6.8-7c3.8,0,7.1,2.3,6.6,7.6h-12c0.3,3.2,2.7,5,5.4,5c1.8,0,3.8-0.7,4.8-2.1l0.9,0.8
		c-1.3,1.7-3.6,2.6-5.8,2.6C669.8,213.4,666.8,210.8,666.8,206.4z M679,205.9c0-3.4-2.2-5.2-5.4-5.2c-2.8,0-5.1,1.9-5.4,5.2H679z"/>
	<path class="st1" d="M14.1,227v19.2h-1.3v-3c-1.1,2.1-3.3,3.2-5.6,3.2c-3.7,0-6.7-2.5-6.7-7c0-4.5,3-7,6.7-7c2.3,0,4.5,1,5.6,3.2
		V227L14.1,227L14.1,227z M1.9,239.4c0,3.8,2.5,5.7,5.5,5.7c3.1,0,5.5-2.3,5.5-5.7s-2.4-5.7-5.5-5.7C4.3,233.7,1.9,235.6,1.9,239.4z
		"/>
	<path class="st1" d="M17.5,239.4c0-4.1,3-7,6.8-7c3.8,0,7.1,2.3,6.6,7.6h-12c0.3,3.2,2.7,5,5.4,5c1.8,0,3.8-0.7,4.8-2.1l0.9,0.8
		c-1.3,1.7-3.6,2.6-5.8,2.6C20.5,246.4,17.5,243.7,17.5,239.4z M29.7,238.9c0-3.4-2.2-5.2-5.4-5.2c-2.8,0-5.1,1.9-5.4,5.2H29.7z"/>
	<path class="st1" d="M36.1,228.2c0,1.4-2.1,1.4-2.1,0S36.1,226.8,36.1,228.2z M34.3,232.6v13.6h1.3v-13.6H34.3z"/>
	<path class="st1" d="M68.6,232.2c0,2-1.2,3.5-3.1,4.1c2.4,0.7,3.7,2.6,3.7,4.8c0,4-3.6,5-6.9,5c-2.8,0-5,0-7.8,0V227
		c2.7,0,5,0,7.8,0C65.5,227,68.6,228.6,68.6,232.2z M56,235.7h6.5c2.3,0,4.7-0.7,4.7-3.5c0-2.8-2.5-4-4.8-4H56L56,235.7L56,235.7z
		 M56,244.8h6.3c2.4,0,5.4-0.6,5.4-3.6c0-3-2.7-4.1-5.3-4.1c-2.3,0-4.2,0-6.5,0L56,244.8L56,244.8z"/>
	<path class="st1" d="M71.7,239.4c0-4.1,3-7,6.8-7c3.8,0,7.1,2.3,6.6,7.6h-12c0.3,3.2,2.7,5,5.4,5c1.8,0,3.8-0.7,4.8-2.1l0.9,0.8
		c-1.3,1.7-3.6,2.6-5.8,2.6C74.7,246.4,71.7,243.7,71.7,239.4z M83.9,238.9c0-3.4-2.2-5.2-5.4-5.2c-2.8,0-5.1,1.9-5.4,5.2H83.9z"/>
	<path class="st1" d="M89.9,232.6v2.4c1-1.9,2.9-2.6,4.8-2.7c3.6,0,6,2.2,6,6v7.8h-1.3v-7.8c0-3.1-1.9-4.7-4.8-4.7
		c-2.8,0-4.7,2.1-4.7,4.9v7.6h-1.3v-13.6L89.9,232.6L89.9,232.6z"/>
	<path class="st1" d="M105.9,228.2c0,1.4-2.1,1.4-2.1,0S105.9,226.8,105.9,228.2z M104.1,232.6v13.6h1.3v-13.6H104.1z"/>
	<path class="st1" d="M123.4,239.4c0-4.1,3-7,6.8-7c3.8,0,7.1,2.3,6.6,7.6h-12c0.3,3.2,2.7,5,5.4,5c1.8,0,3.8-0.7,4.8-2.1l0.9,0.8
		c-1.3,1.7-3.6,2.6-5.8,2.6C126.4,246.4,123.4,243.7,123.4,239.4z M135.6,238.9c0-3.4-2.2-5.2-5.4-5.2c-2.8,0-5.1,1.9-5.4,5.2H135.6
		z"/>
	<path class="st1" d="M160.5,227v19.2h-1.3v-3c-1.1,2.1-3.3,3.2-5.6,3.2c-3.7,0-6.7-2.5-6.7-7c0-4.5,3-7,6.7-7c2.3,0,4.5,1,5.6,3.2
		V227L160.5,227L160.5,227z M148.2,239.4c0,3.8,2.5,5.7,5.5,5.7c3.1,0,5.5-2.3,5.5-5.7s-2.4-5.7-5.5-5.7
		C150.7,233.7,148.2,235.6,148.2,239.4z"/>
	<path class="st1" d="M163.8,239.4c0-4.1,3-7,6.8-7c3.8,0,7.1,2.3,6.6,7.6h-12c0.3,3.2,2.7,5,5.4,5c1.8,0,3.8-0.7,4.8-2.1l0.9,0.8
		c-1.3,1.7-3.6,2.6-5.8,2.6C166.9,246.4,163.8,243.7,163.8,239.4z M176,238.9c0-3.4-2.2-5.2-5.4-5.2c-2.8,0-5.1,1.9-5.4,5.2H176z"/>
	<path class="st1" d="M182,227v19.2h-1.3V227H182z"/>
	<path class="st1" d="M187,227v19.2h-1.3V227H187z"/>
	<path class="st1" d="M190,239.4c0-4.1,3-7,6.8-7c3.8,0,7.1,2.3,6.6,7.6h-12c0.3,3.2,2.7,5,5.4,5c1.8,0,3.8-0.7,4.8-2.1l0.9,0.8
		c-1.3,1.7-3.6,2.6-5.8,2.6C193,246.4,190,243.7,190,239.4z M202.2,238.9c0-3.4-2.2-5.2-5.4-5.2c-2.8,0-5.1,1.9-5.4,5.2H202.2z"/>
	<path class="st1" d="M229.6,246.2l-2.1-4.7h-11.3l-2.1,4.7h-1.6L221,227h1.6l8.5,19.2H229.6z M226.9,240.1l-5.1-11.7l-5.1,11.7
		H226.9z"/>
	<path class="st1" d="M235,228.5v4.1h4.5v1.1H235v8.3c0,1.8,0.4,3.1,2.5,3.1c0.7,0,1.4-0.2,2.1-0.5l0.5,1.1
		c-0.8,0.4-1.7,0.7-2.5,0.7c-2.8,0-3.8-1.7-3.8-4.4v-8.3h-2.8v-1.1h2.8v-4L235,228.5z"/>
	<path class="st1" d="M245.7,228.5v4.1h4.5v1.1h-4.5v8.3c0,1.8,0.4,3.1,2.5,3.1c0.7,0,1.4-0.2,2.1-0.5l0.5,1.1
		c-0.8,0.4-1.7,0.7-2.5,0.7c-2.8,0-3.8-1.7-3.8-4.4v-8.3h-2.8v-1.1h2.8v-4L245.7,228.5z"/>
	<path class="st1" d="M255,228.2c0,1.4-2.1,1.4-2.1,0S255,226.8,255,228.2z M253.3,232.6v13.6h1.3v-13.6H253.3z"/>
	<path class="st1" d="M257.1,232.6h1.5l4.9,12l4.9-12h1.5l-5.6,13.6h-1.5L257.1,232.6z"/>
	<path class="st1" d="M273.7,228.2c0,1.4-2.1,1.4-2.1,0S273.7,226.8,273.7,228.2z M272,232.6v13.6h1.3v-13.6H272z"/>
	<path class="st1" d="M280.1,228.5v4.1h4.5v1.1h-4.5v8.3c0,1.8,0.4,3.1,2.5,3.1c0.7,0,1.4-0.2,2.1-0.5l0.5,1.1
		c-0.8,0.4-1.7,0.7-2.5,0.7c-2.8,0-3.8-1.7-3.8-4.4v-8.3H276v-1.1h2.8v-4L280.1,228.5z"/>
	<path class="st1" d="M300.6,232.6c0,4.5,0,9,0,13.6h-1.3v-2.9c-1.3,2.1-3.3,3.1-5.5,3.1c-3.7,0-6.8-2.9-6.8-7s3.1-7,6.8-7
		c2.2,0,4.4,1,5.5,3.1v-3L300.6,232.6L300.6,232.6z M288.3,239.4c0,3.4,2.4,5.7,5.5,5.7c7.4,0,7.4-11.4,0-11.4
		C290.8,233.8,288.3,236,288.3,239.4z M293.9,230.2l-2.5-3.4v0h1.8l2,3.3v0.1L293.9,230.2L293.9,230.2z"/>
	<path class="st1" d="M327.5,243.5c-1.9,1.9-4.4,2.9-6.9,2.9c-6.4,0-9.7-4.5-9.7-9.7c-0.1-5.1,3.2-9.9,9.7-9.9c2.5,0,5,1,6.9,2.9
		l-1,0.9c-1.6-1.6-3.8-2.4-5.9-2.4c-5.5,0-8.4,4-8.3,8.6c0.1,4.5,2.9,8.4,8.3,8.4c2.1,0,4.3-0.8,5.9-2.4L327.5,243.5z"/>
	<path class="st1" d="M340.6,246.2v-2.4c-1,1.9-2.9,2.6-4.8,2.7c-3.6,0-6-2.2-6-6v-7.8h1.3v7.8c0,3.1,1.9,4.7,4.8,4.7
		c2.8,0,4.7-2.1,4.7-4.9v-7.6h1.3v13.6L340.6,246.2L340.6,246.2z"/>
	<path class="st1" d="M346.8,227v19.2h-1.3V227H346.8z"/>
	<path class="st1" d="M353.5,228.5v4.1h4.5v1.1h-4.5v8.3c0,1.8,0.4,3.1,2.5,3.1c0.7,0,1.4-0.2,2.1-0.5l0.5,1.1
		c-0.8,0.4-1.7,0.7-2.5,0.7c-2.8,0-3.8-1.7-3.8-4.4v-8.3h-2.8v-1.1h2.8v-4L353.5,228.5z"/>
	<path class="st1" d="M371.9,246.2v-2.4c-1,1.9-2.9,2.6-4.8,2.7c-3.6,0-6-2.2-6-6v-7.8h1.3v7.8c0,3.1,1.9,4.7,4.8,4.7
		c2.8,0,4.7-2.1,4.7-4.9v-7.6h1.3v13.6L371.9,246.2L371.9,246.2z"/>
	<path class="st1" d="M377.9,232.6l0.1,2.4c0.8-1.8,2.7-2.6,4.4-2.6c1,0,2,0.2,2.9,0.8l-0.6,1.1c-0.7-0.4-1.5-0.6-2.3-0.6
		c-2.5,0-4.4,2.1-4.4,4.5v7.9h-1.3v-13.6H377.9z"/>
	<path class="st1" d="M400.2,232.6c0,4.5,0,9,0,13.6h-1.3v-2.9c-1.3,2.1-3.3,3.1-5.5,3.1c-3.7,0-6.8-2.9-6.8-7s3.1-7,6.8-7
		c2.2,0,4.4,1,5.5,3.1v-3L400.2,232.6L400.2,232.6z M387.9,239.4c0,3.4,2.4,5.7,5.5,5.7c7.4,0,7.4-11.4,0-11.4
		C390.3,233.8,387.9,236,387.9,239.4z"/>
	<path class="st1" d="M405.1,227v19.2h-1.3V227H405.1z"/>
	<path class="st1" d="M410.6,228.2c0,1.4-2.1,1.4-2.1,0S410.6,226.8,410.6,228.2z M408.8,232.6v13.6h1.3v-13.6H408.8z"/>
	<path class="st1" d="M441.6,227v19.2h-1.3v-3c-1.1,2.1-3.3,3.2-5.6,3.2c-3.7,0-6.7-2.5-6.7-7c0-4.5,3-7,6.7-7c2.3,0,4.5,1,5.6,3.2
		V227L441.6,227L441.6,227z M429.4,239.4c0,3.8,2.5,5.7,5.5,5.7c3.1,0,5.5-2.3,5.5-5.7s-2.4-5.7-5.5-5.7
		C431.8,233.7,429.4,235.6,429.4,239.4z"/>
	<path class="st1" d="M445,239.4c0-4.1,3-7,6.8-7c3.8,0,7.1,2.3,6.6,7.6h-12c0.3,3.2,2.7,5,5.4,5c1.8,0,3.8-0.7,4.8-2.1l0.9,0.8
		c-1.3,1.7-3.6,2.6-5.8,2.6C448,246.4,445,243.7,445,239.4z M457.2,238.9c0-3.4-2.2-5.2-5.4-5.2c-2.8,0-5.1,1.9-5.4,5.2H457.2z"/>
	<path class="st1" d="M463.1,227v19.2h-1.3V227H463.1z"/>
	<path class="st1" d="M468.2,227v19.2h-1.3V227H468.2z"/>
	<path class="st1" d="M484.7,232.6c0,4.5,0,9,0,13.6h-1.3v-2.9c-1.3,2.1-3.3,3.1-5.5,3.1c-3.7,0-6.8-2.9-6.8-7s3.1-7,6.8-7
		c2.2,0,4.4,1,5.5,3.1v-3L484.7,232.6L484.7,232.6z M472.5,239.4c0,3.4,2.4,5.7,5.5,5.7c7.4,0,7.4-11.4,0-11.4
		C474.9,233.8,472.5,236,472.5,239.4z"/>
	<path class="st1" d="M518.6,246.2h-1.9l-6.6-7.3H505v7.3h-1.5V227c2.8,0,5.6,0,8.3,0c4.1,0,6.2,3,6.2,6c0,3.1-2,5.9-6.1,5.9
		L518.6,246.2z M505,237.5h6.7c3.3,0,4.8-1.9,4.8-4.6c0-2.3-1.5-4.6-4.6-4.6H505V237.5z"/>
	<path class="st1" d="M520,239.4c0-4.1,3-7,6.8-7c3.8,0,7.1,2.3,6.6,7.6h-12c0.3,3.2,2.7,5,5.4,5c1.8,0,3.8-0.7,4.8-2.1l0.9,0.8
		c-1.3,1.7-3.6,2.6-5.8,2.6C523.1,246.4,520,243.7,520,239.4z M532.2,238.9c0-3.4-2.2-5.2-5.4-5.2c-2.8,0-5.1,1.9-5.4,5.2H532.2z"/>
	<path class="st1" d="M547.6,232.1l0.9,0.8l-1.3,1.5c0.9,1,1.7,2.4,1.7,4.6c0,2.4-1.4,4.8-3.6,5.8c2.4,0.9,3.7,2.5,3.7,4.9
		c0,3.7-2.8,5.4-6.4,5.4c-3.5,0-6.3-2-6.3-5.4h1.3c0,2.8,2.3,4.1,5,4.1s5.1-1.2,5.1-4.1c0-2.9-2.6-4.1-5.1-4.1
		c-3.9,0-6.3-2.9-6.3-6.6c0-4.2,2.8-6.6,6.3-6.6c1.4,0,2.8,0.5,3.8,1.2L547.6,232.1z M537.6,239c0,2.8,1.9,5.2,5,5.2
		c2.8,0,5-2.4,5-5.2c0-3.4-2.2-5.3-5-5.3C539.8,233.7,537.6,235.5,537.6,239z"/>
	<path class="st1" d="M553.3,228.2c0,1.4-2.1,1.4-2.1,0S553.3,226.8,553.3,228.2z M551.6,232.6v13.6h1.3v-13.6H551.6z"/>
	<path class="st1" d="M556.4,239.4c0-4.3,3-7.1,6.8-7.1c3.8,0,6.8,2.7,6.8,7.1s-3,7-6.8,7C559.4,246.4,556.4,243.8,556.4,239.4z
		 M568.7,239.4c0-3.5-2.5-5.8-5.5-5.8c-3,0-5.5,2.3-5.5,5.8s2.5,5.6,5.5,5.6C566.2,245.1,568.7,243,568.7,239.4z"/>
	<path class="st1" d="M574.3,232.6v2.4c1-1.9,2.9-2.6,4.8-2.7c3.6,0,6,2.2,6,6v7.8h-1.3v-7.8c0-3.1-1.9-4.7-4.8-4.7
		c-2.8,0-4.7,2.1-4.7,4.9v7.6H573v-13.6L574.3,232.6L574.3,232.6z"/>
	<path class="st1" d="M587.8,239.4c0-4.1,3-7,6.8-7c3.8,0,7.1,2.3,6.6,7.6h-12c0.3,3.2,2.7,5,5.4,5c1.8,0,3.8-0.7,4.8-2.1l0.9,0.8
		c-1.3,1.7-3.6,2.6-5.8,2.6C590.8,246.4,587.8,243.7,587.8,239.4z M600,238.9c0-3.4-2.2-5.2-5.4-5.2c-2.8,0-5.1,1.9-5.4,5.2H600z"/>
	<path class="st1" d="M621.2,227v17.8h10.7v1.4h-12.1V227H621.2z"/>
	<path class="st1" d="M647.8,232.6c0,4.5,0,9,0,13.6h-1.3v-2.9c-1.3,2.1-3.3,3.1-5.5,3.1c-3.7,0-6.8-2.9-6.8-7s3.1-7,6.8-7
		c2.2,0,4.4,1,5.5,3.1v-3L647.8,232.6L647.8,232.6z M635.6,239.4c0,3.4,2.4,5.7,5.5,5.7c7.4,0,7.4-11.4,0-11.4
		C638,233.8,635.6,236,635.6,239.4z"/>
	<path class="st1" d="M650.7,232.6h10.1v0.5l-8.4,11.8h8.4v1.3h-10.5v-0.5l8.5-11.9h-8.1V232.6z"/>
	<path class="st1" d="M665.3,228.2c0,1.4-2.1,1.4-2.1,0S665.3,226.8,665.3,228.2z M663.6,232.6v13.6h1.3v-13.6H663.6z"/>
	<path class="st1" d="M668.4,239.4c0-4.3,3-7.1,6.8-7.1c3.8,0,6.8,2.7,6.8,7.1s-3,7-6.8,7C671.4,246.4,668.4,243.8,668.4,239.4z
		 M680.7,239.4c0-3.5-2.5-5.8-5.5-5.8c-3,0-5.5,2.3-5.5,5.8s2.5,5.6,5.5,5.6C678.2,245.1,680.7,243,680.7,239.4z"/>
</g>
</svg>
